<svg xmlns="http://www.w3.org/2000/svg" viewBox="0 0 283.015 267.293"><defs><style>.a{fill:#79ac64;}.b{fill:#fff;}.c{fill:#ededed;}.d{fill:#f8f8f8;}.e{fill:#fbd6b1;}.f{fill:#4c3f3a;}.g{fill:#ec6180;}.h{fill:#d55757;}.i{fill:#7a7b7c;}.j{fill:#81a992;}.k{fill:#2a2928;}</style></defs><g transform="translate(514.479 1221.351)"><g transform="translate(-531 -1221.351)"><path class="a" d="M210.844-22.881l16.4-79.825V97.23H-16.628Z" transform="translate(72.29 170.048)"/><path class="b" d="M100.482-233.658H58.832l39.1,32.957h41.65l-39.1-32.957" transform="translate(-42.311 434.228)"/><path class="c" d="M97.932-178.44v11.494h-39.1v-66.712l39.1,32.957v22.261" transform="translate(-41.311 434.228)"/><path class="b" d="M248.8-313.978H207.15l39.1,32.957H287.9l-39.1-32.957" transform="translate(-148.979 492.288)"/><path class="c" d="M246.251-258.761l-39.1-32.957v-22.26l39.1,32.957v22.26" transform="translate(-148.979 492.288)"/><path class="b" d="M397.12-394.3H355.47l39.1,32.957h41.65L397.12-394.3" transform="translate(-255.649 550.349)"/><path class="c" d="M394.57-339.082l-39.1-32.957V-394.3l39.1,32.957v22.261" transform="translate(-255.649 550.349)"/><path class="b" d="M545.438-474.62h-41.65l39.1,32.957h41.65l-39.1-32.957" transform="translate(-362.317 608.408)"/><path class="c" d="M542.889-419.4l-39.1-32.957v-22.26l39.1,32.957v22.26" transform="translate(-362.317 608.408)"/><path class="b" d="M693.758-554.941h-41.65l39.1,32.957h41.65l-39.1-32.957" transform="translate(-468.986 666.468)"/><path class="c" d="M691.208-499.723l-39.1-32.957v-22.261l39.1,32.957v22.261" transform="translate(-468.986 666.468)"/><path class="b" d="M842.076-635.261h-41.65l39.1,32.957H875.19v-5.046l-33.113-27.911" transform="translate(-575.655 724.528)"/><path class="c" d="M839.527-580.043,800.426-613v-22.26l39.1,32.957v22.261" transform="translate(-575.655 724.528)"/><path class="b" d="M981.859-715.582H948.746l33.113,27.911Z" transform="translate(-682.324 782.588)"/><path class="c" d="M981.859-665.411l-33.113-27.911v-22.261l33.113,27.911v22.261" transform="translate(-682.324 782.588)"/><path class="d" d="M299.653-516.347v22.261H258v22.261h-41.65v22.26H174.7V-427.3h-41.65v22.26H91.4v22.261l.009,11.5,243.9-121.77v-23.3H299.653" transform="translate(-35.782 638.57)"/><path class="e" d="M333.6-917.621c3.316,12.581-2.8,25.041-14.275,27.986s-23.962-4.738-27.278-17.319,3.3-25.169,14.773-28.114c19.906-5.11,23.465,4.866,26.781,17.447" transform="translate(-209.417 942.231)"/><path class="f" d="M284.97-936.027s17.776-.232,32.539-7.231c-5.172-13.081-19.772-19.424-36.323-8.564-19.663,12.9-1.117,38.185,5.781,43.536a49.182,49.182,0,0,0,.815-14.334s-3.622,3.035-4.522-1.739c-.619-3.285,3.9-2.216,3.9-2.216l-2.19-9.452" transform="translate(-195.914 957.351)"/><path class="f" d="M248.4-913.082s-14.763-11.326-23.808-.757c-11.976,14,15.075,26.834-2.965,37.443,13.513,5.427,24.029-7.538,15.511-18.54-12.368-15.975,4.444-20.054,11.262-18.146" transform="translate(-159.235 929.158)"/><path class="f" d="M352.028-854.122c.492,1.866.113,3.055-.687,3.261s-1.718-.65-2.21-2.517-.113-3.055.687-3.26,1.718.65,2.21,2.517" transform="translate(-250.932 884.573)"/><path class="f" d="M420.079-871.665c.492,1.866.113,3.055-.687,3.261s-1.718-.65-2.21-2.517-.113-3.056.687-3.261,1.718.65,2.21,2.517" transform="translate(-299.873 897.254)"/><path class="g" d="M378.15-819.075a5.36,5.36,0,0,0,6.528,3.783,5.278,5.278,0,0,0,3.833-6.443l-10.362,2.66" transform="translate(-271.96 859.321)"/><path class="e" d="M367.775-791.151l2.084,7.909,6.826,8.472,1.778-10.681-2.084-7.909-8.6,2.209" transform="translate(-264.498 838.809)"/><path class="h" d="M350.952-762.615l-9.466,5.905,7.742,21.9-.7,12.105,31.82-8.168-6.182-10.339L369.9-764.506l-10.341-.317-1.778,10.681-6.826-8.472" transform="translate(-245.592 818.182)"/><path class="i" d="M404.527-702.7a1.274,1.274,0,0,1-.925,1.555,1.294,1.294,0,0,1-1.576-.913,1.274,1.274,0,0,1,.925-1.555,1.294,1.294,0,0,1,1.576.913" transform="translate(-289.102 773.966)"/><path class="i" d="M411.478-675.976a1.273,1.273,0,0,1-.925,1.555,1.294,1.294,0,0,1-1.576-.913,1.274,1.274,0,0,1,.925-1.555,1.293,1.293,0,0,1,1.576.913" transform="translate(-294.1 754.648)"/><path class="i" d="M418.429-649.253a1.274,1.274,0,0,1-.925,1.555,1.294,1.294,0,0,1-1.576-.913,1.274,1.274,0,0,1,.925-1.555,1.294,1.294,0,0,1,1.576.913" transform="translate(-299.099 735.332)"/><path class="e" d="M333.173-605.464l-.03,17.536-17.492,5.182s-3.165,8.766.282,10c3.958,1.415,3.356-6.93,3.356-6.93l19.238-3.454,3.453-22.274-8.806-.058" transform="translate(-226.058 702.989)"/><path class="e" d="M436.816-626.99l19.222,16.081,12.309,14.766s9.411.566,9.653-3.045c.278-4.146-7.678-1.257-7.678-1.257l-10.249-14.114L446.4-630.562l-9.586,3.573" transform="translate(-314.152 721.131)"/><path class="h" d="M408.839-631.143l-31.8,10.018-.918-12.313,27.019-6.936,5.7,9.232" transform="translate(-270.5 728.224)"/><path class="j" d="M472.914-639.438l-.578-.936h0l.61.925-.032.011" transform="translate(-339.697 728.224)"/><path class="k" d="M472.336-640.374h0" transform="translate(-339.697 728.224)"/><path class="b" d="M376.382-629.938l-.262-3.5,27.091-6.936.579.936-27.408,9.5" transform="translate(-270.574 728.224)"/><path class="e" d="M475.066-863.714s-1.722-5.307-5.316-2.913.773,5.638.773,5.638l4.544-2.725" transform="translate(-336.816 892.219)"/><path class="d" d="M475.884-851.782l-.913-1.031,5.274-3.1.666,1.1-5.027,3.035" transform="translate(-341.592 884.029)"/><path class="h" d="M433.11-823.412c11.625,2.7,35.7-4.479,17.734-30.678l-5.852,3.327c5.106,6.882,11.823,23.5-9.2,21.731l-2.682,5.621" transform="translate(-311.486 882.709)"/><path class="i" d="M497.218-842.819a.625.625,0,0,0-.871-.08.606.606,0,0,0-.08.86.625.625,0,0,0,.87.081.606.606,0,0,0,.081-.86" transform="translate(-356.805 874.721)"/><path class="i" d="M493.521-849.334a.624.624,0,0,0-.871-.08.6.6,0,0,0-.081.858.624.624,0,0,0,.871.08.6.6,0,0,0,.081-.858" transform="translate(-354.146 879.43)"/><path class="e" d="M192.147-685.614s-4.731,3.042-5.987-1.055,4.207-3.89,4.207-3.89l1.78,4.945" transform="translate(-133.749 764.501)"/><path class="d" d="M202.024-692.724l-1.367.23,2.1,5.694,1.221-.438-1.957-5.486" transform="translate(-144.309 766.065)"/><path class="h" d="M244.8-730.27l-39.725,12.562-2.409-6.227,38.982-11.613,3.152,5.277" transform="translate(-145.756 797.02)"/><path class="i" d="M219.749-681.144a.619.619,0,0,1-.726-.48.612.612,0,0,1,.488-.716.619.619,0,0,1,.726.48.611.611,0,0,1-.488.716" transform="translate(-157.51 758.568)"/><path class="i" d="M212.769-678.426a.618.618,0,0,1-.726-.481.61.61,0,0,1,.487-.715.618.618,0,0,1,.726.481.61.61,0,0,1-.487.716" transform="translate(-152.49 756.603)"/></g></g></svg>